<svg width="1748" height="1377" viewBox="0 0 1748 1377" fill="none" xmlns="http://www.w3.org/2000/svg">
<rect x="123" y="853" width="1522.85" height="203" fill="#228AD6"/>
<rect x="123" y="445" width="1522.85" height="408" fill="#228AD6"/>
<ellipse cx="139" cy="976" rx="62" ry="61" fill="white"/>
<ellipse cx="232" cy="969" rx="62" ry="61" fill="white"/>
<ellipse cx="254" cy="1029.5" rx="84" ry="83.5" fill="white"/>
<ellipse cx="391" cy="1029.5" rx="84" ry="83.5" fill="white"/>
<ellipse cx="450" cy="991.5" rx="84" ry="83.5" fill="white"/>
<ellipse cx="1293" cy="1215.5" rx="84" ry="108.5" fill="white"/>
<ellipse cx="1055" cy="966.5" rx="84" ry="108.5" fill="white"/>
<ellipse cx="668" cy="1107" rx="183" ry="174" fill="white"/>
<ellipse cx="485" cy="1129" rx="183" ry="174" fill="white"/>
<ellipse cx="943" cy="908.5" rx="385" ry="234.5" fill="white"/>
<ellipse cx="1396" cy="1107" rx="183" ry="174" fill="white"/>
<ellipse cx="1300" cy="984" rx="183" ry="174" fill="white"/>
<ellipse cx="1099" cy="1129" rx="183" ry="174" fill="white"/>
<ellipse cx="1565" cy="1203" rx="183" ry="174" fill="white"/>
<ellipse cx="357" cy="1112.5" rx="84" ry="83.5" fill="white"/>
<ellipse cx="170" cy="1074.5" rx="84" ry="83.5" fill="white"/>
<ellipse cx="254" cy="1138.5" rx="84" ry="83.5" fill="white"/>
<ellipse cx="895" cy="1157.5" rx="84" ry="83.5" fill="white"/>
<ellipse cx="1562" cy="973" rx="84" ry="82" fill="white"/>
<ellipse cx="1544" cy="1055" rx="84" ry="82" fill="white"/>
<ellipse cx="121" cy="181" rx="62" ry="61" fill="white"/>
<ellipse cx="214" cy="174" rx="62" ry="61" fill="white"/>
<ellipse cx="236" cy="234.5" rx="84" ry="83.5" fill="white"/>
<ellipse cx="373" cy="234.5" rx="84" ry="83.5" fill="white"/>
<ellipse cx="432" cy="196.5" rx="84" ry="83.5" fill="white"/>
<ellipse cx="1275" cy="420.5" rx="84" ry="108.5" fill="white"/>
<ellipse cx="1037" cy="171.5" rx="84" ry="108.5" fill="white"/>
<ellipse cx="650" cy="312" rx="183" ry="174" fill="white"/>
<ellipse cx="467" cy="334" rx="183" ry="174" fill="white"/>
<ellipse cx="183" cy="334" rx="183" ry="174" fill="white"/>
<ellipse cx="833" cy="174" rx="183" ry="174" fill="white"/>
<ellipse cx="1378" cy="312" rx="183" ry="174" fill="white"/>
<ellipse cx="1282" cy="189" rx="183" ry="174" fill="white"/>
<ellipse cx="1081" cy="334" rx="183" ry="174" fill="white"/>
<ellipse cx="1547" cy="408" rx="183" ry="174" fill="white"/>
<ellipse cx="339" cy="317.5" rx="84" ry="83.5" fill="white"/>
<ellipse cx="152" cy="279.5" rx="84" ry="83.5" fill="white"/>
<ellipse cx="236" cy="343.5" rx="84" ry="83.5" fill="white"/>
<ellipse cx="877" cy="362.5" rx="84" ry="83.5" fill="white"/>
<ellipse cx="1544" cy="178" rx="84" ry="82" fill="white"/>
<ellipse cx="1526" cy="260" rx="84" ry="82" fill="white"/>
<rect x="105" y="275" width="1547" height="170" fill="white"/>
</svg>
