<svg width="1730" height="582" viewBox="0 0 1730 582" fill="none" xmlns="http://www.w3.org/2000/svg">
<ellipse cx="121" cy="181" rx="62" ry="61" fill="white"/>
<ellipse cx="214" cy="174" rx="62" ry="61" fill="white"/>
<ellipse cx="236" cy="234.5" rx="84" ry="83.5" fill="white"/>
<ellipse cx="373" cy="234.5" rx="84" ry="83.5" fill="white"/>
<ellipse cx="432" cy="196.5" rx="84" ry="83.5" fill="white"/>
<ellipse cx="1275" cy="420.5" rx="84" ry="108.5" fill="white"/>
<ellipse cx="1037" cy="171.5" rx="84" ry="108.5" fill="white"/>
<ellipse cx="650" cy="312" rx="183" ry="174" fill="white"/>
<ellipse cx="467" cy="334" rx="183" ry="174" fill="white"/>
<ellipse cx="183" cy="334" rx="183" ry="174" fill="white"/>
<ellipse cx="833" cy="174" rx="183" ry="174" fill="white"/>
<ellipse cx="1378" cy="312" rx="183" ry="174" fill="white"/>
<ellipse cx="1282" cy="189" rx="183" ry="174" fill="white"/>
<ellipse cx="1081" cy="334" rx="183" ry="174" fill="white"/>
<ellipse cx="1547" cy="408" rx="183" ry="174" fill="white"/>
<ellipse cx="339" cy="317.5" rx="84" ry="83.5" fill="white"/>
<ellipse cx="152" cy="279.5" rx="84" ry="83.5" fill="white"/>
<ellipse cx="236" cy="343.5" rx="84" ry="83.5" fill="white"/>
<ellipse cx="877" cy="362.5" rx="84" ry="83.5" fill="white"/>
<ellipse cx="1544" cy="178" rx="84" ry="82" fill="white"/>
<ellipse cx="1526" cy="260" rx="84" ry="82" fill="white"/>
</svg>
