<svg width="1529" height="1377" viewBox="0 0 1529 1377" fill="none" xmlns="http://www.w3.org/2000/svg">
<rect width="1529" height="1377" fill="#1E1E1E"/>
<rect x="-877" y="-78" width="3148" height="1770" fill="black"/>
<rect y="853" width="1522.85" height="203" fill="#228AD6"/>
<rect y="445" width="1522.85" height="408" fill="#228AD6"/>
<ellipse cx="16" cy="976" rx="62" ry="61" fill="white"/>
<ellipse cx="109" cy="969" rx="62" ry="61" fill="white"/>
<ellipse cx="131" cy="1029.5" rx="84" ry="83.5" fill="white"/>
<ellipse cx="268" cy="1029.5" rx="84" ry="83.5" fill="white"/>
<ellipse cx="327" cy="991.5" rx="84" ry="83.5" fill="white"/>
<ellipse cx="1170" cy="1215.5" rx="84" ry="108.5" fill="white"/>
<ellipse cx="932" cy="966.5" rx="84" ry="108.5" fill="white"/>
<ellipse cx="545" cy="1107" rx="183" ry="174" fill="white"/>
<ellipse cx="362" cy="1129" rx="183" ry="174" fill="white"/>
<ellipse cx="820" cy="908.5" rx="385" ry="234.5" fill="white"/>
<ellipse cx="1273" cy="1107" rx="183" ry="174" fill="white"/>
<ellipse cx="1177" cy="984" rx="183" ry="174" fill="white"/>
<ellipse cx="976" cy="1129" rx="183" ry="174" fill="white"/>
<ellipse cx="1442" cy="1203" rx="183" ry="174" fill="white"/>
<ellipse cx="234" cy="1112.5" rx="84" ry="83.5" fill="white"/>
<ellipse cx="47" cy="1074.5" rx="84" ry="83.5" fill="white"/>
<ellipse cx="131" cy="1138.5" rx="84" ry="83.5" fill="white"/>
<ellipse cx="772" cy="1157.5" rx="84" ry="83.5" fill="white"/>
<ellipse cx="1439" cy="973" rx="84" ry="82" fill="white"/>
<ellipse cx="1421" cy="1055" rx="84" ry="82" fill="white"/>
<ellipse cx="-2" cy="181" rx="62" ry="61" fill="white"/>
<ellipse cx="91" cy="174" rx="62" ry="61" fill="white"/>
<ellipse cx="113" cy="234.5" rx="84" ry="83.5" fill="white"/>
<ellipse cx="250" cy="234.5" rx="84" ry="83.5" fill="white"/>
<ellipse cx="309" cy="196.5" rx="84" ry="83.5" fill="white"/>
<ellipse cx="1152" cy="420.5" rx="84" ry="108.5" fill="white"/>
<ellipse cx="914" cy="171.5" rx="84" ry="108.5" fill="white"/>
<ellipse cx="527" cy="312" rx="183" ry="174" fill="white"/>
<ellipse cx="344" cy="334" rx="183" ry="174" fill="white"/>
<ellipse cx="60" cy="334" rx="183" ry="174" fill="white"/>
<ellipse cx="710" cy="174" rx="183" ry="174" fill="white"/>
<ellipse cx="1255" cy="312" rx="183" ry="174" fill="white"/>
<ellipse cx="1159" cy="189" rx="183" ry="174" fill="white"/>
<ellipse cx="958" cy="334" rx="183" ry="174" fill="white"/>
<ellipse cx="1424" cy="408" rx="183" ry="174" fill="white"/>
<ellipse cx="216" cy="317.5" rx="84" ry="83.5" fill="white"/>
<ellipse cx="29" cy="279.5" rx="84" ry="83.5" fill="white"/>
<ellipse cx="113" cy="343.5" rx="84" ry="83.5" fill="white"/>
<ellipse cx="754" cy="362.5" rx="84" ry="83.5" fill="white"/>
<ellipse cx="1421" cy="178" rx="84" ry="82" fill="white"/>
<ellipse cx="1403" cy="260" rx="84" ry="82" fill="white"/>
<rect x="-18" y="275" width="1547" height="170" fill="white"/>
</svg>
