<svg width="1502" height="1405" viewBox="0 0 1502 1405" fill="none" xmlns="http://www.w3.org/2000/svg">
<g clip-path="url(#clip0_243_386)">
<rect width="1512" height="5673" transform="translate(0 -62)" fill="#0C0C0C"/>
<g filter="url(#filter0_f_243_386)">
<ellipse cx="1042.81" cy="1247.28" rx="328" ry="112.679" transform="rotate(-18.781 1042.81 1247.28)" fill="#228AD6"/>
</g>
<rect x="-3" y="881" width="1522.85" height="203" fill="#228AD6"/>
<rect x="-3" y="473" width="1522.85" height="408" fill="#228AD6"/>
<ellipse cx="13" cy="1004" rx="62" ry="61" fill="white"/>
<ellipse cx="106" cy="997" rx="62" ry="61" fill="white"/>
<ellipse cx="128" cy="1057.5" rx="84" ry="83.5" fill="white"/>
<ellipse cx="265" cy="1057.5" rx="84" ry="83.5" fill="white"/>
<ellipse cx="324" cy="1019.5" rx="84" ry="83.5" fill="white"/>
<ellipse cx="1167" cy="1243.5" rx="84" ry="108.5" fill="white"/>
<ellipse cx="929" cy="994.5" rx="84" ry="108.5" fill="white"/>
<ellipse cx="542" cy="1135" rx="183" ry="174" fill="white"/>
<ellipse cx="359" cy="1157" rx="183" ry="174" fill="white"/>
<ellipse cx="817" cy="936.5" rx="385" ry="234.5" fill="white"/>
<ellipse cx="1270" cy="1135" rx="183" ry="174" fill="white"/>
<ellipse cx="1174" cy="1012" rx="183" ry="174" fill="white"/>
<ellipse cx="973" cy="1157" rx="183" ry="174" fill="white"/>
<ellipse cx="1439" cy="1231" rx="183" ry="174" fill="white"/>
<ellipse cx="231" cy="1140.5" rx="84" ry="83.5" fill="white"/>
<ellipse cx="44" cy="1102.5" rx="84" ry="83.5" fill="white"/>
<ellipse cx="128" cy="1166.5" rx="84" ry="83.5" fill="white"/>
<ellipse cx="769" cy="1185.5" rx="84" ry="83.5" fill="white"/>
<ellipse cx="1436" cy="1001" rx="84" ry="82" fill="white"/>
<ellipse cx="1418" cy="1083" rx="84" ry="82" fill="white"/>
<ellipse cx="-5" cy="209" rx="62" ry="61" fill="white"/>
<ellipse cx="88" cy="202" rx="62" ry="61" fill="white"/>
<ellipse cx="110" cy="262.5" rx="84" ry="83.5" fill="white"/>
<ellipse cx="247" cy="262.5" rx="84" ry="83.5" fill="white"/>
<ellipse cx="306" cy="224.5" rx="84" ry="83.5" fill="white"/>
<ellipse cx="1149" cy="448.5" rx="84" ry="108.5" fill="white"/>
<ellipse cx="911" cy="199.5" rx="84" ry="108.5" fill="white"/>
<ellipse cx="524" cy="340" rx="183" ry="174" fill="white"/>
<ellipse cx="341" cy="362" rx="183" ry="174" fill="white"/>
<ellipse cx="57" cy="362" rx="183" ry="174" fill="white"/>
<ellipse cx="707" cy="202" rx="183" ry="174" fill="white"/>
<ellipse cx="1252" cy="340" rx="183" ry="174" fill="white"/>
<ellipse cx="1156" cy="217" rx="183" ry="174" fill="white"/>
<ellipse cx="955" cy="362" rx="183" ry="174" fill="white"/>
<ellipse cx="1421" cy="436" rx="183" ry="174" fill="white"/>
<ellipse cx="213" cy="345.5" rx="84" ry="83.5" fill="white"/>
<ellipse cx="26" cy="307.5" rx="84" ry="83.5" fill="white"/>
<ellipse cx="110" cy="371.5" rx="84" ry="83.5" fill="white"/>
<ellipse cx="751" cy="390.5" rx="84" ry="83.5" fill="white"/>
<ellipse cx="1418" cy="206" rx="84" ry="82" fill="white"/>
<ellipse cx="1400" cy="288" rx="84" ry="82" fill="white"/>
<rect x="-21" y="303" width="1547" height="170" fill="white"/>
<path d="M766.065 861.5H770.3V861.885L773.975 867.38L778.735 861.5H782.97V886H778.735V867.205L775.97 870.46V872.665H772.925V872.105L770.3 868.185V886H766.065V861.5ZM788.521 866.05H794.401L797.516 870.67V882.185H803.921V886H787.051V882.185H793.456V871.405L792.406 869.865H788.521V866.05ZM793.036 862.2H797.936V857.3H793.036V862.2ZM808.038 866.715H812.273V867.87L814.198 866.715H821.793L824.943 871.37V886H820.708V872.14L819.693 870.635H812.903L812.273 871.37V886H808.038V866.715ZM832.419 859.82H836.654V866.68H842.324V870.635H836.654V880.54L837.634 882.045H840.574L843.059 879.56L845.299 882.815L842.324 886H835.569L832.419 881.38V870.635H829.619V866.68H832.419V859.82Z" fill="white"/>
</g>
<defs>
<filter id="filter0_f_243_386" x="230.136" y="597.173" width="1625.35" height="1300.21" filterUnits="userSpaceOnUse" color-interpolation-filters="sRGB">
<feFlood flood-opacity="0" result="BackgroundImageFix"/>
<feBlend mode="normal" in="SourceGraphic" in2="BackgroundImageFix" result="shape"/>
<feGaussianBlur stdDeviation="250" result="effect1_foregroundBlur_243_386"/>
</filter>
<clipPath id="clip0_243_386">
<rect width="1512" height="5673" fill="white" transform="translate(0 -62)"/>
</clipPath>
</defs>
</svg>
