<svg width="70" height="80" viewBox="0 0 70 80" fill="none" xmlns="http://www.w3.org/2000/svg">
<path d="M56.2486 46.6774L31.906 62.7394C26.5871 66.249 19.5 62.4344 19.5 56.062L19.5 23.938C19.5 17.5656 26.5871 13.751 31.9059 17.2606L56.2486 33.3226C61.0407 36.4845 61.0407 43.5154 56.2486 46.6774Z" stroke="white" stroke-width="4"/>
<path d="M55.5051 33.3226C60.2972 36.4846 60.2972 43.5154 55.5051 46.6774L32.0934 62.1251C26.7746 65.6346 19.6875 61.8201 19.6875 55.4477L19.6875 24.5523C19.6875 18.1799 26.7746 14.3654 32.0934 17.8749L55.5051 33.3226Z" fill="#FF2D00"/>
<path d="M24.5 41.25H40.4731L33.1428 48.2313L35 50L45.5 40L35 30L33.1428 31.7688L40.4731 38.75H24.5V41.25Z" fill="white"/>
</svg>
