<svg width="74" height="76" viewBox="0 0 74 76" fill="none" xmlns="http://www.w3.org/2000/svg">
<path d="M15.5263 31.1188L41.4197 15.7652C46.7525 12.6031 53.5 16.4466 53.5 22.6464L53.5 53.3536C53.5 59.5534 46.7525 63.397 41.4197 60.2349L15.5263 44.8812C10.3 41.7823 10.3 34.2177 15.5263 31.1188Z" stroke="white" stroke-width="4"/>
<path d="M16.23 44.8812C11.0037 41.7823 11.0037 34.2177 16.23 31.1188L41.1072 16.3677C46.44 13.2056 53.1875 17.0491 53.1875 23.2489L53.1875 52.7511C53.1875 58.9509 46.44 62.7944 41.1072 59.6323L16.23 44.8812Z" fill="#FF2D00"/>
<path d="M48.1 36.8125H31.2141L38.9633 30.1803L37 28.5L25.9 38L37 47.5L38.9633 45.8197L31.2141 39.1875H48.1V36.8125Z" fill="white"/>
</svg>
